<?xml version="1.0" standalone="no"?>
<!DOCTYPE svg PUBLIC "-//W3C//DTD SVG 20010904//EN"
 "http://www.w3.org/TR/2001/REC-SVG-20010904/DTD/svg10.dtd">
<svg version="1.0" xmlns="http://www.w3.org/2000/svg"
 width="192.000000pt" height="192.000000pt" viewBox="0 0 192.000000 192.000000"
 preserveAspectRatio="xMidYMid meet">
<metadata>
Created by potrace 1.11, written by Peter Selinger 2001-2013
</metadata>
<g transform="translate(0.000000,192.000000) scale(0.100000,-0.100000)"
fill="#000000" stroke="none">
<path d="M297 1543 c-4 -3 -7 -118 -7 -255 l0 -248 165 0 165 0 0 40 0 40
-115 0 -115 0 0 70 0 70 110 0 110 0 0 35 0 35 -110 0 -110 0 0 70 0 70 115 0
115 0 0 40 0 40 -158 0 c-87 0 -162 -3 -165 -7z"/>
<path d="M748 1544 c-5 -4 -8 -119 -8 -256 l0 -248 119 0 c139 0 188 14 242
66 92 90 90 294 -3 381 -45 42 -96 56 -223 61 -66 2 -123 1 -127 -4z m248 -90
c54 -26 79 -76 79 -159 -1 -125 -49 -175 -167 -175 l-68 0 0 175 0 175 61 0
c35 0 75 -7 95 -16z"/>
</g>
</svg>
